<svg xmlns="http://www.w3.org/2000/svg" width="27" height="33" viewBox="0 0 27 33" fill="none">
  <path d="M22.5579 17.5662C22.6025 22.4 26.7738 24.0085 26.8199 24.029C26.7846 24.1424 26.1534 26.3213 24.6224 28.5719C23.2988 30.5177 21.9251 32.4563 19.7611 32.4964C17.635 32.5358 16.9512 31.2282 14.5202 31.2282C12.09 31.2282 11.3304 32.4563 9.31756 32.5358C7.22881 32.6154 5.63821 30.4318 4.30375 28.4931C1.57667 24.5277 -0.507337 17.2874 2.29096 12.4002C3.68107 9.97312 6.16545 8.43632 8.86183 8.3969C10.9129 8.35759 12.8489 9.78487 14.1028 9.78487C15.3558 9.78487 17.7085 8.06845 20.1818 8.3205C21.2171 8.36388 24.1235 8.7411 25.9898 11.4888C25.8393 11.5826 22.5218 13.5251 22.5579 17.5663M18.5619 5.69696C19.6709 4.34679 20.4172 2.46732 20.2136 0.597092C18.6151 0.661705 16.6823 1.66849 15.5357 3.01785C14.5082 4.21289 13.6084 6.12548 13.8512 7.95863C15.6329 8.0973 17.4529 7.04795 18.5619 5.69696Z" fill="white"/>
</svg>