<svg xmlns="http://www.w3.org/2000/svg" width="33" height="33" viewBox="0 0 33 33" fill="none">
  <g clip-path="url(#clip0_1_58)">
    <path d="M11.6195 1.64762C8.42812 2.75474 5.67587 4.85609 3.76702 7.64302C1.85818 10.43 0.893346 13.7556 1.01425 17.1314C1.13515 20.5072 2.33542 23.7552 4.43874 26.3985C6.54207 29.0417 9.43759 30.9408 12.7 31.8168C15.3449 32.4992 18.116 32.5292 20.775 31.9041C23.1839 31.363 25.4109 30.2056 27.2381 28.5453C29.1398 26.7645 30.5201 24.499 31.2307 21.9924C32.0031 19.2667 32.1405 16.4001 31.6324 13.613H16.7799V19.7741H25.3815C25.2096 20.7567 24.8412 21.6946 24.2984 22.5315C23.7556 23.3685 23.0495 24.0873 22.2224 24.645C21.172 25.3398 19.988 25.8073 18.7463 26.0175C17.501 26.2491 16.2236 26.2491 14.9783 26.0175C13.7161 25.7565 12.5221 25.2356 11.4723 24.4878C9.78577 23.294 8.51944 21.598 7.85398 19.6418C7.17727 17.649 7.17727 15.4885 7.85398 13.4957C8.32767 12.0988 9.11073 10.827 10.1447 9.77507C11.328 8.54921 12.8261 7.67296 14.4746 7.24245C16.1231 6.81195 17.8583 6.84382 19.4899 7.33459C20.7645 7.72584 21.93 8.40944 22.8936 9.33089C23.8635 8.36601 24.8317 7.39864 25.7982 6.42877C26.2973 5.90723 26.8413 5.41065 27.3329 4.87664C25.862 3.50787 24.1355 2.44279 22.2523 1.74244C18.8229 0.497225 15.0706 0.463761 11.6195 1.64762Z" fill="white"/>
    <path d="M11.6195 1.64764C15.0703 0.462979 18.8226 0.495562 22.2523 1.73997C24.1359 2.44508 25.8616 3.51528 27.3304 4.88914C26.8313 5.42315 26.3048 5.92223 25.7958 6.44127C24.8276 7.40781 23.8602 8.37103 22.8936 9.33091C21.93 8.40946 20.7645 7.72587 19.4899 7.33461C17.8589 6.84213 16.1237 6.8084 14.4748 7.23715C12.8258 7.66589 11.3268 8.54053 10.1423 9.76511C9.10825 10.817 8.32518 12.0888 7.85149 13.4857L2.67857 9.48064C4.53017 5.80884 7.73608 3.0002 11.6195 1.64764Z" fill="#E33629"/>
    <path d="M1.30611 13.4483C1.58415 12.0703 2.04575 10.7359 2.67857 9.48062L7.85149 13.4957C7.17478 15.4885 7.17478 17.649 7.85149 19.6418C6.12801 20.9727 4.40371 22.3102 2.67857 23.6544C1.09438 20.501 0.611227 16.9081 1.30611 13.4483Z" fill="#F8BD00"/>
    <path d="M16.7799 13.6105H31.6324C32.1405 16.3976 32.0031 19.2642 31.2307 21.99C30.5201 24.4965 29.1398 26.762 27.2381 28.5428C25.5687 27.2402 23.8918 25.9476 22.2224 24.645C23.05 24.0868 23.7565 23.3671 24.2993 22.5293C24.8421 21.6914 25.2102 20.7526 25.3815 19.7691H16.7799C16.7775 17.7179 16.7799 15.6642 16.7799 13.6105Z" fill="#587DBD"/>
    <path d="M2.67607 23.6544C4.40121 22.3235 6.12552 20.986 7.84899 19.6418C8.51578 21.5987 9.78392 23.2948 11.4723 24.4878C12.5254 25.2321 13.7219 25.7488 14.9858 26.005C16.2311 26.2366 17.5085 26.2366 18.7538 26.005C19.9955 25.7948 21.1795 25.3274 22.2299 24.6326C23.8993 25.9352 25.5762 27.2278 27.2456 28.5304C25.4187 30.1916 23.1916 31.3498 20.7825 31.8916C18.1235 32.5167 15.3524 32.4868 12.7075 31.8043C10.6156 31.2458 8.66168 30.2611 6.96812 28.9121C5.1756 27.489 3.71154 25.6955 2.67607 23.6544Z" fill="#319F43"/>
  </g>
  <defs>
    <clipPath id="clip0_1_58">
      <rect width="31.9409" height="31.9409" fill="white" transform="translate(0.492615 0.597092)"/>
    </clipPath>
  </defs>
</svg>